<svg width="29" height="29" viewBox="0 0 29 29" fill="none" xmlns="http://www.w3.org/2000/svg">
<path d="M3.68359 0.451344C3.72461 0.451344 3.76562 0.451344 3.80664 0.457204C4.81445 0.519313 5.76953 1.09998 6.33203 1.92849C6.10352 2.04392 5.88672 2.19099 5.68164 2.37439C5.61133 2.43767 5.54102 2.5033 5.48242 2.57009C5.05469 1.93611 4.14062 1.43806 3.42578 1.51775C3.0332 1.56111 2.69922 1.72869 2.41211 2.15291C2.125 2.57654 1.90234 3.29021 1.90234 4.39177V14.7031H0.847656V4.3906C0.847656 3.14841 1.09375 2.22146 1.53906 1.56111C1.98438 0.901344 2.64648 0.541579 3.30859 0.467751C3.43164 0.454274 3.56055 0.449001 3.68359 0.451344ZM7.75 2.62927C7.9082 2.62927 8.06641 2.64158 8.22461 2.66736C8.58203 2.72771 8.91602 2.87068 9.17969 3.02244L5.93945 5.9199C5.81641 5.63865 5.71094 5.29295 5.6875 4.92966C5.65234 4.30037 5.81641 3.66697 6.38477 3.16072C6.8125 2.77927 7.28125 2.63513 7.75 2.62927ZM28.5625 15.9336V16.9883H0.4375V15.9336H28.5625ZM28.0182 18.0429C27.935 21.3301 27.0859 23.7617 25.5133 25.4258H3.48438C2.73438 24.5761 2.07812 23.0937 1.65039 21.5879C1.26953 20.2636 1.05859 18.9511 0.994141 18.0429H28.0182ZM24.5482 26.4804L25.2514 27.5351L24.3736 28.1211L23.2773 26.4804H24.5482ZM4.78516 26.4804L3.68945 28.1211L2.81055 27.5351L3.51367 26.4804H4.78516Z" fill="black"/>
</svg>
