<svg width="41" height="40" viewBox="0 0 41 40" fill="none" xmlns="http://www.w3.org/2000/svg">
<path d="M38.0163 24.6531V20.9944L34.3787 20.0794L34.1306 19.6144C33.8375 19.0675 33.5956 18.7188 33.4094 18.5787C33.2031 18.4194 32.8538 18.3325 32.5219 18.2862C32.2712 17.8206 32.0994 17.7462 32 17.7025C31.894 17.6578 31.78 17.6353 31.665 17.6363C31.3912 17.6363 31.0606 17.7663 30.785 17.905C30.3606 17.4494 30.1206 17.4462 29.9931 17.445H29.8531C28.5281 17.445 26.7931 17.5413 24.9081 17.7075L24.4094 17.0725C24.395 17.0538 22.9137 15.1569 22.515 13.6912L22.4425 13.4256V8.28062C22.4425 8.28062 20.9813 8.49625 20.2625 6.68437H19.6181C19.6181 6.68437 19.4494 6.75375 19.165 6.78937C18.5888 6.72375 17.8406 6.46375 17.0475 5.715C14.9656 3.75 12.9781 3.75 12.9781 3.75H12.3337C12.3337 3.75 10.11 3.75 7.78375 5.71563C6.93625 6.43188 6.12187 6.73875 5.55437 6.80625C5.10687 6.78625 4.8325 6.685 4.8325 6.685H4.1875C3.38438 8.49625 1.75 8.28062 1.75 8.28062V25.9194H2.0075V27.7537H2.88125L3.27813 26.4862L9.2775 30.3269C9.4525 31.4338 10.215 33.8619 10.215 33.8619C10.215 33.8619 11.0356 31.9363 11.1656 31.5356L11.7644 31.9181L12.0694 33.47L12.4269 32.3419L14.3488 33.5737L14.5831 36.0131L14.9281 36.25L15.76 36.0131L16.1581 33.7381L37.4181 30.1931L37.945 32.3456L38.9919 32.1731V29.9312L39.25 29.8875V25.2294L38.0163 24.6531ZM19.8156 13.69C21.1525 13.69 21.9487 13.8431 21.9487 13.8431C22.3844 15.4425 23.9469 17.4294 23.9469 17.4294L23.7525 17.4281C19.8731 17.4281 16.9731 18.5856 16.9731 18.5856C16.345 16.1375 14.9994 14.3044 14.9994 14.3044C16.5734 13.9023 18.1911 13.6959 19.8156 13.69ZM11.5406 14.1887C13.0344 14.1887 13.9237 14.3594 13.9237 14.3594C14.4113 16.1481 16.1575 18.37 16.1575 18.37L15.9525 18.3687C11.6081 18.3687 8.36 19.6644 8.36 19.6644C7.6575 16.9256 6.15125 14.8763 6.15125 14.8763C8.3075 14.3313 10.1756 14.1887 11.5406 14.1887ZM5.89187 15.5356C6.57261 16.5957 7.12264 17.7341 7.53 18.9262C7.24062 18.9963 7.07812 19.0413 7.07812 19.0413C4.81687 18.155 4.12875 16.2994 4.12875 16.2994C4.69599 15.9999 5.28544 15.7446 5.89187 15.5356ZM9.50312 19.9237C9.185 20.1731 8.62563 20.9675 8.5025 21.4769C8.38312 21.9725 8.515 23.59 8.61688 24.6181L3.075 21.9137V18.655L5.05813 18.4937C5.59226 18.9577 6.20275 19.3257 6.8625 19.5813L7.04875 19.6544L7.24125 19.5994C7.24875 19.5975 7.41375 19.5519 7.7025 19.4831C7.73375 19.5902 7.76396 19.6985 7.79312 19.8081L7.95812 20.4506L8.57938 20.2038C8.59 20.2 8.95563 20.0581 9.58375 19.8725C9.55688 19.8888 9.52625 19.9062 9.50312 19.9237ZM13.4963 29.4594C13.4963 29.4594 13.1781 27.9588 12.9475 27.9588C12.9283 27.9588 12.9098 27.9698 12.8919 27.9919C12.6838 28.2525 12.1775 30.6713 12.1775 30.6713C12.1775 30.6713 11.9487 29.0656 11.6788 29.0656C11.6529 29.0652 11.6269 29.0806 11.6006 29.1119C10.9506 29.9006 10.2731 31.9094 10.2731 31.9094C10.2731 31.9094 9.4525 28.6469 9.62188 27.3006C9.79938 25.8894 10.5775 23.1825 11.1544 22.0381C11.4319 21.4863 12.125 20.4212 12.5756 20.2863C16.6944 19.0544 25.52 18.0256 29.8525 18.0256H29.9856C30.1806 18.0275 30.645 18.6544 30.645 18.6544C30.645 18.6544 31.325 18.2169 31.6644 18.2169C31.7027 18.2169 31.736 18.2229 31.7644 18.235C31.8944 18.2919 32.1362 18.8287 32.1362 18.8287C32.1362 18.8287 32.8481 18.8819 33.0544 19.0406C33.2313 19.1744 33.6131 19.8862 33.6131 19.8862C33.6131 19.8862 32.585 19.6719 32.32 19.6644C32.1425 19.6593 31.965 19.6568 31.7875 19.6569C27.3869 19.6569 19.3088 21.065 15.3681 22.7712C14.9381 22.9562 14.3019 24.0912 14.1244 24.7112C13.865 25.6237 13.4963 29.4594 13.4963 29.4594ZM37.2438 24.8169L15.3681 27.9137L14.3062 27.3956C14.4306 26.34 14.5763 25.2644 14.6887 24.8694C14.8131 24.4325 15.1681 23.8088 15.4231 23.4894L37.2438 21.4131V24.8169Z" fill="black"/>
</svg>
