<svg width="70" height="64" viewBox="0 0 70 64" fill="none" xmlns="http://www.w3.org/2000/svg">
<path d="M2.5 62H67.5M7.5 2V62M42.5 2V62M62.5 17V62M17.5 14.5H20M17.5 24.5H20M17.5 34.5H20M30 14.5H32.5M30 24.5H32.5M30 34.5H32.5M17.5 62V50.75C17.5 48.68 19.18 47 21.25 47H28.75C30.82 47 32.5 48.68 32.5 50.75V62M5 2H45M42.5 17H65M52.5 29.5H52.5267V29.5267H52.5V29.5ZM52.5 39.5H52.5267V39.5267H52.5V39.5ZM52.5 49.5H52.5267V49.5267H52.5V49.5Z" stroke="#38AD0D" stroke-width="4" stroke-linecap="round" stroke-linejoin="round"/>
</svg>
