<svg width="20" height="26" viewBox="0 0 20 26" fill="none" xmlns="http://www.w3.org/2000/svg">
<path d="M7.66746 11.4671L9.67933 9.62211C10.2299 9.11701 10.617 8.45896 10.7911 7.73236C10.9651 7.00575 10.9182 6.24372 10.6562 5.54398L9.79652 3.24898C9.47606 2.3924 8.84081 1.69039 8.02041 1.2862C7.20001 0.882005 6.25629 0.806105 5.38183 1.07398C2.16434 2.05836 -0.30879 5.04898 0.45246 8.60117C0.953085 10.9374 1.91027 13.8699 3.72621 16.9909C5.24776 19.6194 7.16204 22 9.40277 24.0502C12.0934 26.499 15.9371 25.8868 18.4103 23.5815C19.0728 22.9631 19.4748 22.1155 19.5343 21.2112C19.5939 20.3069 19.3066 19.4139 18.7309 18.714L17.155 16.7996C16.68 16.2223 16.0433 15.8002 15.3267 15.5873C14.61 15.3745 13.8462 15.3808 13.1331 15.6052L10.5306 16.4255C10.43 16.3224 10.3156 16.1999 10.1875 16.058C9.65223 15.4663 9.17883 14.8213 8.77465 14.1334C8.38105 13.4392 8.05938 12.7066 7.81465 11.9471C7.76229 11.7881 7.71322 11.6281 7.66746 11.4671Z" fill="#38AD0D"/>
</svg>
