<svg width="80" height="80" viewBox="0 0 80 80" fill="none" xmlns="http://www.w3.org/2000/svg">
<path fill-rule="evenodd" clip-rule="evenodd" d="M73.75 32.5H68.75V37.5H73.75V32.5Z" fill="#38AD0D"/>
<path fill-rule="evenodd" clip-rule="evenodd" d="M73.7751 47.455V40.5525C75.5033 40.2414 77.0661 39.3298 78.1877 37.9786C79.3093 36.6274 79.9175 34.9235 79.9051 33.1675C79.8993 32.1865 79.6973 31.2167 79.3109 30.315C78.9245 29.4133 78.3615 28.5982 77.6551 27.9175L51.5051 2.15001C50.1004 0.769941 48.2093 -0.00230742 46.2401 5.1791e-06L46.2276 0.0125055C44.266 0.00945182 42.3814 0.774985 40.9776 2.145L37.8101 5.25001C37.2672 4.40761 36.522 3.71459 35.6425 3.23422C34.763 2.75386 33.7772 2.50144 32.7751 2.50001H27.3001C25.7007 2.50398 24.1683 3.14209 23.0388 4.27437C21.9093 5.40666 21.275 6.94069 21.2751 8.54V21.54L14.7176 28C13.7374 28.9669 13.0446 30.1866 12.716 31.5236C12.3875 32.8607 12.4362 34.2626 12.8566 35.5736C13.277 36.8847 14.0528 38.0534 15.0976 38.95C16.1424 39.8466 17.4154 40.436 18.7751 40.6525V60H16.2751V42.5425C14.042 41.6569 12.2052 39.9925 11.1044 37.8572C10.0037 35.7219 9.71352 33.2602 10.2876 30.9275C10.7294 29.1422 11.655 27.5133 12.9626 26.22L18.7751 20.495V15C14.2401 15.0825 10.5826 18.855 10.5826 23.4875H10.3801C6.20755 23.4875 2.79755 26.9275 2.79755 31.1975V32.7775C2.79755 34.355 3.28255 35.83 4.07255 37.0725C2.82749 37.8094 1.79667 38.859 1.08231 40.1171C0.367948 41.3752 -0.00513464 42.7982 5.33775e-05 44.245C5.33775e-05 48.8 3.63755 52.5 8.11505 52.5H12.5001V60C9.75005 60 7.50005 62.25 7.50005 65H77.5001C77.4996 64.284 77.3454 63.5763 77.0478 62.9251C76.7501 62.2738 76.3161 61.694 75.7751 61.225C76.2717 60.4617 76.6626 59.645 76.9475 58.775C77.5751 56.9198 77.6673 54.9253 77.2136 53.02C76.76 51.1148 75.7788 49.3759 74.3826 48.0025L74.3651 47.9875C74.1755 47.8023 73.9787 47.6246 73.7751 47.455ZM33.7751 8.54V13.77L26.2751 21.1675V8.54C26.2741 8.40441 26.2998 8.26996 26.3508 8.14431C26.4017 8.01866 26.477 7.90429 26.5722 7.80771C26.6673 7.71114 26.7806 7.63426 26.9055 7.58146C27.0304 7.52867 27.1645 7.50099 27.3001 7.50001H32.7751C32.9098 7.4999 33.0432 7.52703 33.1672 7.57976C33.2912 7.6325 33.4033 7.70976 33.4967 7.8069C33.5901 7.90403 33.6629 8.01905 33.7107 8.14503C33.7586 8.27101 33.7804 8.40536 33.7751 8.54ZM23.7751 60V33.05L46.2326 10.9125L68.7501 33.0875V37.5H68.7751V45.1375C67.5227 44.9334 66.2437 44.9579 65.0001 45.21V36.79C64.9974 36.3161 64.808 35.8623 64.4729 35.5272C64.1377 35.1921 63.684 35.0026 63.2101 35H54.2901C53.8161 35.0026 53.3624 35.1921 53.0272 35.5272C52.6921 35.8623 52.5027 36.3161 52.5001 36.79V45.71C52.5027 46.1839 52.6921 46.6377 53.0272 46.9728C53.3624 47.3079 53.8161 47.4974 54.2901 47.5H60.3326C59.2605 48.4175 58.3796 49.5372 57.7401 50.795C56.3971 51.2512 55.2062 52.0694 54.2988 53.1595C53.3914 54.2496 52.8026 55.5691 52.5975 56.9725C52.5576 57.1475 52.5359 57.3258 52.5326 57.5075C52.5095 57.7083 52.4986 57.9104 52.5001 58.1125V58.1375C52.5017 58.7825 52.5776 59.4033 52.7276 60H50.0001C50.0001 58.6275 49.0951 57.5 47.9926 57.5H47.495V37.805C47.495 36.2525 46.3526 35 44.9351 35H35.0601C33.6426 35 32.5001 36.2525 32.5001 37.805V57.5H32.0076C30.9076 57.5 30.0001 58.6275 30.0001 60H23.7751ZM55.3501 60C55.7476 61.0225 56.4651 61.8825 57.3751 62.475H70.8V62.5L70.845 62.475C72.0478 61.8291 73.0585 60.877 73.7751 59.715C74.1084 59.1733 74.3751 58.5967 74.5751 57.985C75.0578 56.5732 75.1309 55.0535 74.7858 53.6019C74.4407 52.1502 73.6915 50.826 72.6251 49.7825C71.1504 48.3167 69.1543 47.4958 67.0751 47.5C63.9501 47.5 61.2251 49.355 59.925 52.015C59.7962 52.2858 59.6116 52.5262 59.3832 52.7206C59.1549 52.9149 58.888 53.0587 58.6001 53.1425C56.7001 53.745 55.3001 55.4525 55.0501 57.4825C55.0251 57.5325 55.0251 57.5825 55.0501 57.6325C55.0001 57.7825 55.0001 57.9575 55.0001 58.135C55.0001 58.795 55.125 59.4225 55.3501 60ZM43.7501 50C44.0816 50 44.3995 49.8683 44.6339 49.6339C44.8684 49.3995 45.0001 49.0815 45.0001 48.75C45.0001 48.4185 44.8684 48.1005 44.6339 47.8661C44.3995 47.6317 44.0816 47.5 43.7501 47.5C43.4185 47.5 43.1006 47.6317 42.8662 47.8661C42.6317 48.1005 42.5001 48.4185 42.5001 48.75C42.5001 49.0815 42.6317 49.3995 42.8662 49.6339C43.1006 49.8683 43.4185 50 43.7501 50Z" fill="#38AD0D"/>
</svg>
