<svg width="80" height="80" viewBox="0 0 80 80" fill="none" xmlns="http://www.w3.org/2000/svg">
<mask id="mask0_2_388" style="mask-type:luminance" maskUnits="userSpaceOnUse" x="0" y="0" width="80" height="80">
<path d="M0 0H80V80H0V0Z" fill="white"/>
</mask>
<g mask="url(#mask0_2_388)">
<path d="M57.85 52.505H47.15C45.95 52.505 45 51.555 45 50.355V39.655C45 38.48 45.95 37.505 47.15 37.505H57.85C59.025 37.505 60 38.455 60 39.655V50.355C60 51.555 59.05 52.505 57.85 52.505Z" fill="#38AD0D"/>
<path d="M45.7006 2.30746L45.7106 2.31996L77.5981 33.7325L77.6056 33.74C78.3649 34.479 78.9682 35.3629 79.38 36.3392C79.7917 37.3155 80.0035 38.3645 80.0028 39.424C80.0021 40.4836 79.7889 41.5323 79.3759 42.5081C78.9629 43.4839 78.3583 44.3669 77.5981 45.105C76.2294 46.4562 74.4198 47.2692 72.5006 47.395V62.7725C74.6373 63.2838 76.5394 64.5 77.9001 66.225C79.2609 67.9499 80.0008 70.0829 80.0006 72.28V77.505H0.00058666V72.28C-0.0028506 70.0818 0.73584 67.9469 2.09703 66.2209C3.45821 64.4949 5.36218 63.279 7.50059 62.77V47.495C5.58182 47.3625 3.77332 46.5496 2.40059 45.2025C1.64108 44.4616 1.0374 43.5763 0.625077 42.5986C0.212751 41.621 0.000100429 40.5708 -0.000365444 39.5098C-0.000831317 38.4487 0.210897 37.3983 0.622364 36.4203C1.03383 35.4423 1.63673 34.5565 2.39559 33.815L2.40309 33.81L10.0006 26.33V8.80496C10.0006 5.14746 13.0206 2.49996 16.3581 2.49996H23.6681C26.4231 2.49996 28.8981 4.29996 29.7181 6.92246L34.3806 2.32496C37.5306 -0.805039 42.5806 -0.745039 45.6956 2.30496M25.0006 18.58V8.80496C24.9953 8.45572 24.8524 8.12269 24.6028 7.8783C24.3533 7.63392 24.0174 7.49794 23.6681 7.49996H16.3581C16.1828 7.49565 16.0085 7.52615 15.8451 7.58971C15.6817 7.65327 15.5326 7.74862 15.4063 7.87023C15.28 7.99185 15.1792 8.13731 15.1095 8.29819C15.0399 8.45907 15.0028 8.63217 15.0006 8.80746V28.4225L25.0006 18.58ZM12.5006 39.365V67.505H17.5006C17.5006 66.13 18.6256 65.005 20.0006 65.005V40.98C20.0006 39.105 21.5256 37.58 23.4006 37.58H36.6256C38.5006 37.58 40.0256 39.105 40.0256 40.98V65.01C41.3431 65.075 42.4006 66.1725 42.4006 67.505H67.5006V39.265L40.0506 12.2325L12.5006 39.365ZM37.5006 51.255C37.5006 50.9234 37.3689 50.6055 37.1345 50.3711C36.9001 50.1367 36.5821 50.005 36.2506 50.005C35.9191 50.005 35.6011 50.1367 35.3667 50.3711C35.1323 50.6055 35.0006 50.9234 35.0006 51.255C35.0006 51.5865 35.1323 51.9044 35.3667 52.1388C35.6011 52.3733 35.9191 52.505 36.2506 52.505C36.5821 52.505 36.9001 52.3733 37.1345 52.1388C37.3689 51.9044 37.5006 51.5865 37.5006 51.255Z" fill="#38AD0D"/>
</g>
</svg>
