<svg width="30" height="31" viewBox="0 0 30 31" fill="none" xmlns="http://www.w3.org/2000/svg">
<path d="M15 14.6748C14.1712 14.6748 13.3763 14.3456 12.7903 13.7595C12.2042 13.1735 11.875 12.3786 11.875 11.5498C11.875 10.721 12.2042 9.92615 12.7903 9.3401C13.3763 8.75405 14.1712 8.4248 15 8.4248C15.8288 8.4248 16.6237 8.75405 17.2097 9.3401C17.7958 9.92615 18.125 10.721 18.125 11.5498C18.125 11.9602 18.0442 12.3665 17.8871 12.7457C17.7301 13.1248 17.4999 13.4693 17.2097 13.7595C16.9195 14.0497 16.575 14.2799 16.1959 14.4369C15.8167 14.594 15.4104 14.6748 15 14.6748ZM15 2.7998C12.6794 2.7998 10.4538 3.72168 8.81282 5.36262C7.17187 7.00356 6.25 9.22916 6.25 11.5498C6.25 18.1123 15 27.7998 15 27.7998C15 27.7998 23.75 18.1123 23.75 11.5498C23.75 9.22916 22.8281 7.00356 21.1872 5.36262C19.5462 3.72168 17.3206 2.7998 15 2.7998Z" fill="#38AD0D"/>
</svg>
