<svg width="30" height="31" viewBox="0 0 30 31" fill="none" xmlns="http://www.w3.org/2000/svg">
<g clip-path="url(#clip0_2_536)">
<path d="M25 5.2998C25.6307 5.29961 26.2382 5.53781 26.7007 5.96668C27.1632 6.39554 27.4464 6.98336 27.4938 7.6123L27.5 7.7998V22.7998C27.5002 23.4305 27.262 24.038 26.8331 24.5005C26.4043 24.963 25.8164 25.2463 25.1875 25.2936L25 25.2998H5C4.36928 25.3 3.76179 25.0618 3.29932 24.6329C2.83684 24.2041 2.55355 23.6162 2.50625 22.9873L2.5 22.7998V7.7998C2.4998 7.16908 2.73801 6.5616 3.16687 6.09912C3.59573 5.63664 4.18356 5.35336 4.8125 5.30605L5 5.2998H25ZM25 9.5673L16.325 18.2423C15.9734 18.5934 15.4969 18.7907 15 18.7907C14.5031 18.7907 14.0266 18.5934 13.675 18.2423L5 9.5673V22.7998H25V9.5673ZM23.2325 7.7998H6.7675L15 16.0323L23.2325 7.7998Z" fill="#38AD0D"/>
</g>
<defs>
<clipPath id="clip0_2_536">
<rect width="30" height="30" fill="white" transform="translate(0 0.299805)"/>
</clipPath>
</defs>
</svg>
